<svg width="280" height="36" viewBox="0 0 280 36" fill="none" xmlns="http://www.w3.org/2000/svg">
<path d="M4.9315 24V6.72H8.6035V24H4.9315ZM11.8643 24V6.72H15.7043L25.3763 18.24V6.72H29.1443V24H25.3043L15.5843 12.432V24H11.8643ZM33.0811 24V6.72H49.0411V10.464H36.8491V13.488H46.6651V17.232H36.8491V24H33.0811ZM55.0808 24C54.4408 24 53.8488 23.84 53.3048 23.52C52.7608 23.2 52.3288 22.768 52.0088 22.224C51.6888 21.68 51.5288 21.088 51.5288 20.448V10.272C51.5288 9.616 51.6888 9.024 52.0088 8.496C52.3288 7.952 52.7608 7.52 53.3048 7.2C53.8488 6.88 54.4408 6.72 55.0808 6.72H65.2568C65.8968 6.72 66.4808 6.88 67.0088 7.2C67.5528 7.52 67.9848 7.952 68.3048 8.496C68.6408 9.024 68.8088 9.616 68.8088 10.272V20.448C68.8088 21.088 68.6408 21.68 68.3048 22.224C67.9848 22.768 67.5528 23.2 67.0088 23.52C66.4808 23.84 65.8968 24 65.2568 24H55.0808ZM55.2488 20.256H65.0408V10.464H55.2488V20.256ZM86.0678 24L81.0518 18.024H85.9238L89.9078 22.728V24H86.0678ZM72.6518 24V6.744H86.3558C87.0118 6.744 87.6038 6.904 88.1318 7.224C88.6758 7.544 89.1078 7.976 89.4278 8.52C89.7638 9.064 89.9318 9.656 89.9318 10.296V14.76C89.9318 15.4 89.7638 15.992 89.4278 16.536C89.1078 17.08 88.6758 17.512 88.1318 17.832C87.6038 18.152 87.0118 18.312 86.3558 18.312L76.3718 18.336V24H72.6518ZM76.3718 14.568H86.1638V10.464H76.3718V14.568ZM93.6565 24V6.72H97.4965L103.353 13.704L109.185 6.72H113.049V24H109.305V12.408L103.353 19.512L97.3765 12.432V24H93.6565ZM117.17 24V10.272C117.17 9.616 117.33 9.024 117.65 8.496C117.97 7.952 118.402 7.52 118.946 7.2C119.49 6.88 120.082 6.72 120.722 6.72H130.874C131.53 6.72 132.122 6.88 132.65 7.2C133.194 7.52 133.626 7.952 133.946 8.496C134.282 9.024 134.45 9.616 134.45 10.272V24H130.682V18.432H120.89V24H117.17ZM120.89 14.688H130.682V10.464H120.89V14.688ZM144.289 24V10.464H137.521V6.72H154.801V10.464H148.033V24H144.289ZM164.228 24V17.544L156.236 6.72H160.676L166.1 13.536L171.5 6.72H175.988L167.972 17.568V24H164.228ZM178.356 24V6.72H182.1V13.488H185.484L191.148 6.72H195.036V8.016L188.868 15.36L195.036 22.704V24H191.148L185.484 17.232H182.1V24H178.356ZM198.142 24V10.272C198.142 9.616 198.302 9.024 198.622 8.496C198.942 7.952 199.374 7.52 199.918 7.2C200.462 6.88 201.054 6.72 201.694 6.72H211.846C212.502 6.72 213.094 6.88 213.622 7.2C214.166 7.52 214.598 7.952 214.918 8.496C215.254 9.024 215.422 9.616 215.422 10.272V24H211.654V18.432H201.862V24H198.142ZM201.862 14.688H211.654V10.464H201.862V14.688Z" fill="#2B2B2B"/>
<path d="M239.75 24.3712V20.0272H228.878V17.0752L239.942 7.09115H242.894V16.8592H245.318V20.0272H242.894V24.3712H239.75ZM233.774 16.8592H239.75V11.8672L233.774 16.8592ZM247.561 24.3712V21.2272H250.705V24.3712H247.561ZM256.383 24.3712C255.775 24.3712 255.223 24.2112 254.727 23.8912C254.231 23.5552 253.831 23.1232 253.527 22.5952C253.223 22.0672 253.071 21.5072 253.071 20.9152V10.4752C253.071 9.85115 253.223 9.29115 253.527 8.79515C253.831 8.28315 254.231 7.87515 254.727 7.57115C255.223 7.25115 255.775 7.09115 256.383 7.09115H266.871C267.479 7.09115 268.031 7.25115 268.527 7.57115C269.023 7.87515 269.423 8.28315 269.727 8.79515C270.031 9.29115 270.183 9.85115 270.183 10.4752V20.9152C270.183 21.5072 270.031 22.0672 269.727 22.5952C269.423 23.1232 269.023 23.5552 268.527 23.8912C268.031 24.2112 267.479 24.3712 266.871 24.3712H256.383ZM257.655 21.0592H266.751C266.831 21.0592 266.895 21.0352 266.943 20.9872C267.007 20.9232 267.039 20.8512 267.039 20.7712V13.2352L257.655 21.0592ZM256.215 18.1312L265.599 10.3072H256.503C256.423 10.3072 256.351 10.3392 256.287 10.4032C256.239 10.4512 256.215 10.5152 256.215 10.5952V18.1312Z" fill="#2B2B2B"/>
</svg>
