<svg width="339" height="36" viewBox="0 0 339 36" fill="none" xmlns="http://www.w3.org/2000/svg">
<path d="M8.03938 30.9999V9.39994H12.6294V30.9999H8.03938ZM16.7054 30.9999V9.39994H21.5054L33.5954 23.7999V9.39994H38.3054V30.9999H33.5054L21.3554 16.5399V30.9999H16.7054ZM43.2263 30.9999V9.39994H63.1763V14.0799H47.9363V17.8599H60.2063V22.5399H47.9363V30.9999H43.2263ZM70.726 30.9999C69.926 30.9999 69.186 30.7999 68.506 30.3999C67.826 29.9999 67.286 29.4599 66.886 28.7799C66.486 28.0999 66.286 27.3599 66.286 26.5599V13.8399C66.286 13.0199 66.486 12.2799 66.886 11.6199C67.286 10.9399 67.826 10.3999 68.506 9.99994C69.186 9.59994 69.926 9.39994 70.726 9.39994H83.446C84.246 9.39994 84.976 9.59994 85.636 9.99994C86.316 10.3999 86.856 10.9399 87.256 11.6199C87.676 12.2799 87.886 13.0199 87.886 13.8399V26.5599C87.886 27.3599 87.676 28.0999 87.256 28.7799C86.856 29.4599 86.316 29.9999 85.636 30.3999C84.976 30.7999 84.246 30.9999 83.446 30.9999H70.726ZM70.936 26.3199H83.176V14.0799H70.936V26.3199ZM109.46 30.9999L103.19 23.5299H109.28L114.26 29.4099V30.9999H109.46ZM92.6898 30.9999V9.42994H109.82C110.64 9.42994 111.38 9.62994 112.04 10.0299C112.72 10.4299 113.26 10.9699 113.66 11.6499C114.08 12.3299 114.29 13.0699 114.29 13.8699V19.4499C114.29 20.2499 114.08 20.9899 113.66 21.6699C113.26 22.3499 112.72 22.8899 112.04 23.2899C111.38 23.6899 110.64 23.8899 109.82 23.8899L97.3398 23.9199V30.9999H92.6898ZM97.3398 19.2099H109.58V14.0799H97.3398V19.2099ZM118.946 30.9999V9.39994H123.746L131.066 18.1299L138.356 9.39994H143.186V30.9999H138.506V16.5099L131.066 25.3899L123.596 16.5399V30.9999H118.946ZM148.338 30.9999V13.8399C148.338 13.0199 148.538 12.2799 148.938 11.6199C149.338 10.9399 149.878 10.3999 150.558 9.99994C151.238 9.59994 151.978 9.39994 152.778 9.39994H165.468C166.288 9.39994 167.028 9.59994 167.688 9.99994C168.368 10.3999 168.908 10.9399 169.308 11.6199C169.728 12.2799 169.938 13.0199 169.938 13.8399V30.9999H165.228V24.0399H152.988V30.9999H148.338ZM152.988 19.3599H165.228V14.0799H152.988V19.3599ZM182.236 30.9999V14.0799H173.776V9.39994H195.376V14.0799H186.916V30.9999H182.236ZM207.159 30.9999V22.9299L197.169 9.39994H202.719L209.499 17.9199L216.249 9.39994H221.859L211.839 22.9599V30.9999H207.159ZM224.819 30.9999V9.39994H229.499V17.8599H233.729L240.809 9.39994H245.669V11.0199L237.959 20.1999L245.669 29.3799V30.9999H240.809L233.729 22.5399H229.499V30.9999H224.819ZM249.553 30.9999V13.8399C249.553 13.0199 249.753 12.2799 250.153 11.6199C250.553 10.9399 251.093 10.3999 251.772 9.99994C252.453 9.59994 253.193 9.39994 253.993 9.39994H266.683C267.503 9.39994 268.243 9.59994 268.903 9.99994C269.583 10.3999 270.123 10.9399 270.523 11.6199C270.943 12.2799 271.153 13.0199 271.153 13.8399V30.9999H266.443V24.0399H254.203V30.9999H249.553ZM254.203 19.3599H266.443V14.0799H254.203V19.3599Z" fill="#2B2B2B"/>
<path d="M296.131 31.3712V25.9412H282.541V22.2512L296.371 9.77115H300.061V21.9812H303.091V25.9412H300.061V31.3712H296.131ZM288.661 21.9812H296.131V15.7412L288.661 21.9812ZM305.895 31.3712V27.4412H309.825V31.3712H305.895ZM316.922 31.3712C316.162 31.3712 315.472 31.1712 314.852 30.7712C314.232 30.3512 313.732 29.8112 313.352 29.1512C312.972 28.4912 312.782 27.7912 312.782 27.0512V14.0012C312.782 13.2212 312.972 12.5212 313.352 11.9012C313.732 11.2612 314.232 10.7512 314.852 10.3712C315.472 9.97115 316.162 9.77115 316.922 9.77115H330.032C330.792 9.77115 331.482 9.97115 332.102 10.3712C332.722 10.7512 333.222 11.2612 333.602 11.9012C333.982 12.5212 334.172 13.2212 334.172 14.0012V27.0512C334.172 27.7912 333.982 28.4912 333.602 29.1512C333.222 29.8112 332.722 30.3512 332.102 30.7712C331.482 31.1712 330.792 31.3712 330.032 31.3712H316.922ZM318.512 27.2312H329.882C329.982 27.2312 330.062 27.2012 330.122 27.1412C330.202 27.0612 330.242 26.9712 330.242 26.8712V17.4512L318.512 27.2312ZM316.712 23.5712L328.442 13.7912H317.072C316.972 13.7912 316.882 13.8312 316.802 13.9112C316.742 13.9712 316.712 14.0512 316.712 14.1512V23.5712Z" fill="#2B2B2B"/>
</svg>
